<?xml version="1.0" encoding="UTF-8"?>
<svg xmlns="http://www.w3.org/2000/svg" xmlns:xlink="http://www.w3.org/1999/xlink" width="530.74pt" height="139.7pt" viewBox="0 0 530.74 139.7" version="1.1">
<defs>
<clipPath id="clip1">
  <path d="M 449 30 L 530.738281 30 L 530.738281 80 L 449 80 Z M 449 30 "/>
</clipPath>
<clipPath id="clip2">
  <path d="M 113 0 L 390 0 L 390 139.699219 L 113 139.699219 Z M 113 0 "/>
</clipPath>
</defs>
<g id="surface1">
<path style=" stroke:none;fill-rule:nonzero;fill:rgb(53.72467%,83.135986%,89.4104%);fill-opacity:1;" d="M 60.597656 114.300781 L 57.238281 126.460938 C 153.511719 99.296875 328.796875 87.070313 472.851563 95.003906 L 487.960938 91.003906 C 341.394531 79.539063 157.671875 89.554688 60.597656 114.300781 "/>
<path style=" stroke:none;fill-rule:nonzero;fill:rgb(13.699341%,12.199402%,12.5%);fill-opacity:1;" d="M 150.625 113.65625 C 150.605469 114.050781 151.183594 114.71875 151.179688 114.78125 C 151.175781 114.914063 151.214844 114.988281 151.273438 114.980469 C 151.363281 114.964844 152.015625 114.8125 153.113281 114.523438 C 153.101563 114.777344 153.097656 114.941406 153.097656 114.984375 C 153.070313 115.59375 152.960938 116.316406 152.921875 117.136719 C 152.894531 117.828125 152.863281 118.625 152.828125 119.542969 C 152.796875 120.363281 152.730469 121.398438 152.683594 122.605469 C 152.65625 123.40625 152.691406 124.109375 152.664063 124.71875 C 152.664063 124.84375 152.632813 125.097656 152.617188 125.476563 C 152.585938 126.382813 153.269531 126.746094 154.503906 126.582031 C 154.824219 126.542969 155.0625 126.363281 155.074219 126.171875 C 155.074219 126.046875 154.945313 126.003906 154.953125 125.921875 C 154.957031 125.792969 155.054688 125.421875 155.074219 124.839844 C 155.089844 124.355469 155.09375 123.101563 155.171875 121.066406 C 155.335938 116.707031 155.5625 114.523438 155.574219 114.273438 C 155.574219 114.125 155.5625 114.023438 155.566406 113.921875 C 155.578125 113.585938 155.929688 113.703125 157.660156 113.214844 C 157.972656 113.136719 158.191406 112.414063 158.214844 111.808594 C 158.230469 111.40625 157.664063 110.921875 157.535156 110.941406 C 157.476563 110.949219 157.410156 110.976563 157.347656 110.984375 C 157.242188 111.003906 157.140625 110.949219 157.015625 110.972656 C 156.847656 110.992188 156.675781 111.140625 156.507813 111.160156 C 156.378906 111.179688 156.261719 111.136719 156.109375 111.152344 C 155.964844 111.175781 155.097656 111.519531 153.410156 111.917969 C 153.371094 111.921875 152.546875 112.136719 151.085938 112.628906 C 150.683594 112.773438 150.585938 113.09375 150.585938 113.117188 C 150.582031 113.21875 150.65625 113.355469 150.648438 113.527344 C 150.648438 113.570313 150.628906 113.609375 150.625 113.65625 "/>
<path style=" stroke:none;fill-rule:nonzero;fill:rgb(13.699341%,12.199402%,12.5%);fill-opacity:1;" d="M 160.867188 113.214844 C 160.828125 114.238281 160.597656 115.792969 160.519531 117.8125 C 160.480469 118.777344 160.476563 120.578125 160.375 123.269531 C 160.339844 124.210938 160.316406 124.859375 160.597656 125.160156 C 160.824219 125.425781 161.324219 125.574219 161.601563 125.539063 C 161.710938 125.523438 161.792969 125.515625 161.816406 125.511719 C 162.050781 125.484375 162.21875 125.523438 162.324219 125.515625 C 162.433594 125.496094 162.605469 125.308594 162.609375 125.160156 C 162.613281 125.03125 162.578125 124.890625 162.582031 124.742188 C 162.589844 124.535156 162.640625 124.300781 162.648438 124.027344 C 162.65625 123.777344 162.644531 123.527344 162.652344 123.296875 C 162.664063 123 162.757813 122.167969 162.800781 120.828125 C 162.820313 120.34375 162.835938 119.96875 162.84375 119.691406 C 162.855469 119.273438 162.867188 119.066406 162.949219 119.027344 C 163.546875 118.847656 163.863281 118.765625 163.886719 118.765625 C 164.03125 118.742188 164.15625 118.746094 164.222656 118.738281 C 164.6875 118.683594 165.113281 118.484375 165.496094 118.4375 C 165.679688 118.410156 165.71875 118.574219 165.707031 118.96875 C 165.699219 119.140625 165.640625 119.542969 165.625 120.175781 C 165.582031 121.460938 165.675781 122.492188 165.648438 123.292969 C 165.644531 123.480469 165.640625 123.605469 165.640625 123.667969 C 165.617188 124.339844 166.179688 124.734375 167.324219 124.585938 C 167.578125 124.554688 167.796875 124.296875 167.804688 123.917969 C 167.816406 123.621094 167.820313 123.453125 167.820313 123.394531 C 167.84375 122.675781 168.023438 121.585938 168.0625 120.179688 C 168.085938 119.382813 168.066406 118.671875 168.089844 118.042969 C 168.113281 117.203125 168.199219 116.457031 168.21875 115.785156 C 168.253906 114.730469 168.175781 113.882813 168.195313 113.234375 C 168.222656 112.371094 168.328125 111.707031 168.34375 111.269531 C 168.355469 111.035156 168.296875 110.792969 168.308594 110.519531 C 168.3125 110.308594 168.363281 110.074219 168.371094 109.820313 C 168.390625 109.230469 167.464844 108.996094 166.734375 109.089844 C 166.125 109.167969 166.015625 109.394531 165.992188 109.9375 C 165.976563 110.425781 166.023438 111 165.996094 111.734375 C 165.894531 114.617188 165.738281 116.082031 165.636719 116.09375 C 165.570313 116.101563 165.46875 116.070313 165.300781 116.09375 C 164.980469 116.136719 164.578125 116.308594 164.113281 116.371094 C 163.988281 116.386719 163.84375 116.382813 163.71875 116.398438 C 163.484375 116.429688 163.273438 116.5 163.105469 116.519531 C 163.039063 116.53125 163.023438 116.488281 163.027344 116.40625 C 163.03125 116.324219 163.074219 116.1875 163.085938 115.980469 C 163.109375 115.308594 163.070313 114.644531 163.09375 113.96875 C 163.125 113.199219 163.214844 112.511719 163.234375 111.964844 C 163.28125 110.789063 162.84375 110.804688 161.605469 110.964844 C 161.207031 111.015625 160.90625 111.789063 160.894531 112.164063 C 160.871094 112.644531 160.878906 113 160.867188 113.214844 "/>
<path style=" stroke:none;fill-rule:nonzero;fill:rgb(13.699341%,12.199402%,12.5%);fill-opacity:1;" d="M 176.195313 110.742188 C 176.386719 110.71875 176.914063 111.074219 177.132813 111.507813 C 177.390625 112.023438 177.816406 113.792969 177.773438 115.082031 C 177.671875 119.042969 176.089844 122.167969 174.863281 122.316406 C 174.585938 122.34375 173.515625 120.839844 173.617188 117.65625 C 173.683594 115.574219 174.054688 113.871094 175.15625 112.066406 C 175.683594 111.207031 175.882813 110.777344 176.195313 110.742188 Z M 171.121094 117.578125 C 171.023438 120.480469 171.757813 121.882813 173.066406 123.175781 C 173.492188 123.605469 173.953125 123.847656 174.4375 123.894531 C 175.253906 123.964844 175.632813 124.109375 175.695313 124.105469 C 175.886719 124.082031 176.058594 124.019531 176.226563 123.996094 C 176.269531 123.992188 176.3125 123.988281 176.355469 123.984375 C 176.949219 123.914063 178.003906 123.007813 178.800781 121.636719 C 179.636719 120.171875 180.367188 117.753906 180.425781 115.394531 C 180.476563 113.4375 179.945313 111.589844 179.101563 110.367188 C 178.601563 109.652344 178.191406 109.339844 177.511719 109.300781 C 176.828125 109.261719 175.886719 108.765625 175.324219 108.835938 C 174.761719 108.902344 173.9375 109.316406 173.503906 109.894531 C 172.347656 111.378906 171.238281 114.464844 171.121094 117.578125 "/>
<path style=" stroke:none;fill-rule:nonzero;fill:rgb(13.699341%,12.199402%,12.5%);fill-opacity:1;" d="M 183.679688 110.308594 C 183.742188 108.9375 183.824219 108.316406 184.113281 108.28125 C 184.992188 108.183594 186.101563 108.539063 186.089844 108.878906 C 186.085938 108.964844 185.996094 109.265625 185.980469 109.859375 C 185.972656 110.085938 185.984375 110.402344 185.976563 110.738281 C 185.9375 111.980469 185.65625 113.972656 185.582031 116.714844 C 185.511719 119.417969 185.921875 120.738281 186.828125 120.632813 C 188.429688 120.457031 188.539063 118.339844 188.664063 113.148438 C 188.683594 112.222656 188.609375 111.09375 188.640625 109.742188 C 188.652344 109.34375 188.660156 109.007813 188.671875 108.730469 C 188.6875 107.800781 188.742188 107.460938 189.15625 107.410156 C 189.925781 107.320313 191.144531 107.496094 191.140625 107.851563 C 191.136719 108.003906 191.066406 108.203125 191.0625 108.410156 C 191.054688 108.625 191.078125 108.789063 191.070313 109.003906 C 191.0625 109.363281 191.011719 109.8125 191 110.316406 C 190.976563 111.285156 191.035156 113.257813 190.972656 116.277344 C 190.925781 118.722656 190.617188 120.339844 189.996094 121.164063 C 189.316406 122.058594 188.359375 122.675781 187.496094 122.777344 C 186.96875 122.828125 186.171875 122.554688 184.9375 122.089844 C 184.480469 121.910156 184.007813 121.433594 183.6875 120.753906 C 183.191406 119.695313 183.191406 118.371094 183.25 116.410156 C 183.335938 113.394531 183.625 111.367188 183.679688 110.308594 "/>
<path style=" stroke:none;fill-rule:nonzero;fill:rgb(13.699341%,12.199402%,12.5%);fill-opacity:1;" d="M 194.804688 120.539063 C 194.179688 120.269531 193.496094 119.03125 193.507813 118.503906 C 193.515625 118.335938 193.601563 118.152344 193.605469 117.988281 C 193.605469 117.921875 193.546875 117.847656 193.546875 117.742188 C 193.554688 117.527344 193.746094 117.363281 193.996094 117.335938 C 194.375 117.300781 194.789063 117.484375 195.21875 117.902344 C 196.085938 118.738281 196.800781 119.527344 197.6875 119.429688 C 198.234375 119.375 198.644531 118.84375 198.652344 118.105469 C 198.679688 116.835938 197.921875 116.011719 196.6875 114.921875 C 195.417969 113.789063 194.671875 112.921875 194.710938 111.273438 C 194.742188 109.964844 195.269531 108.75 196.339844 107.558594 C 197.121094 106.675781 197.960938 106.226563 198.335938 106.183594 C 198.4375 106.171875 199.410156 106.34375 199.757813 106.601563 C 200.570313 107.207031 201.003906 107.519531 201.003906 107.519531 C 201.324219 107.859375 201.761719 109.019531 201.742188 110.078125 C 201.722656 111.257813 201.421875 111.910156 200.835938 111.96875 C 200.125 112.046875 199.675781 111.710938 199.269531 111.148438 C 198.742188 110.398438 198.964844 108.667969 198.71875 108.695313 C 198.21875 108.75 197.152344 109.960938 197.132813 110.976563 C 197.105469 112.113281 198.113281 112.746094 199.300781 113.84375 C 200.84375 115.261719 201.570313 116.65625 201.554688 117.863281 C 201.539063 118.5 201.132813 119.257813 200.320313 120.253906 C 199.675781 121.058594 198.910156 121.519531 198.128906 121.601563 C 195.851563 121.839844 195.328125 120.753906 194.804688 120.539063 "/>
<path style=" stroke:none;fill-rule:nonzero;fill:rgb(13.699341%,12.199402%,12.5%);fill-opacity:1;" d="M 207.363281 114.066406 C 207.367188 113.976563 207.714844 113.035156 208.25 110.847656 C 208.539063 109.636719 208.613281 108.96875 208.738281 108.960938 C 208.925781 108.941406 208.894531 109.515625 209.042969 110.535156 C 209.347656 112.492188 209.648438 113.414063 209.648438 113.539063 C 209.640625 113.945313 209.472656 113.980469 207.636719 114.164063 C 207.46875 114.183594 207.363281 114.152344 207.363281 114.066406 Z M 203.789063 120.777344 C 203.789063 120.886719 203.742188 120.996094 203.742188 121.101563 C 203.742188 121.351563 204.261719 121.621094 205.085938 121.539063 C 205.632813 121.484375 205.828125 120.976563 205.832031 120.722656 C 205.847656 119.945313 206.152344 119.214844 206.371094 118.414063 C 206.53125 117.867188 206.515625 117.359375 206.714844 116.917969 C 206.820313 116.699219 207.15625 116.601563 207.785156 116.496094 C 209.066406 116.261719 209.59375 116.039063 209.675781 116.03125 C 210.113281 115.988281 209.914063 116.855469 210.480469 118.726563 C 210.726563 119.523438 210.90625 120.160156 211.554688 120.097656 C 211.746094 120.078125 211.875 119.898438 212.085938 119.878906 C 212.210938 119.863281 212.335938 119.933594 212.464844 119.925781 C 212.695313 119.902344 212.949219 119.625 212.953125 119.519531 C 212.949219 119.453125 212.808594 119.296875 212.769531 118.832031 C 212.648438 117.640625 212.472656 116.917969 212.414063 116.589844 C 211.921875 113.820313 211.746094 112.292969 211.75 112.210938 C 211.640625 111 211.378906 110.195313 211.304688 109.675781 C 211.226563 109.199219 211.214844 108.585938 211.078125 107.925781 C 210.804688 106.621094 210.714844 105.910156 210.714844 105.890625 C 210.714844 105.800781 210.734375 105.738281 210.738281 105.671875 C 210.742188 105.5 209.261719 105.019531 207.746094 105.171875 C 207.207031 105.230469 206.964844 107.09375 206.023438 110.734375 C 204.699219 115.828125 203.820313 119.195313 203.789063 120.777344 "/>
<path style=" stroke:none;fill-rule:nonzero;fill:rgb(13.699341%,12.199402%,12.5%);fill-opacity:1;" d="M 215.742188 115.695313 C 215.746094 115.183594 215.800781 114.523438 215.8125 113.777344 C 215.816406 113.484375 215.820313 113.019531 215.832031 112.363281 C 215.839844 111.535156 215.917969 110.554688 215.9375 109.453125 C 215.976563 106.714844 216.121094 105.242188 216.125 105.15625 C 216.144531 105.050781 216.25 104.957031 216.4375 104.9375 C 216.804688 104.902344 217.839844 105.121094 218.085938 105.25 C 218.394531 105.414063 218.648438 106.257813 219.152344 107.710938 C 220.363281 111.195313 221.367188 113.199219 221.386719 113.199219 C 221.445313 113.191406 221.46875 113.128906 221.46875 112.960938 C 221.472656 112.851563 221.414063 112.28125 221.421875 111.242188 C 221.464844 106.558594 221.613281 104.046875 221.613281 103.964844 C 221.636719 103.621094 221.699219 103.550781 222.109375 103.515625 C 223.367188 103.398438 223.742188 103.550781 223.738281 104.117188 C 223.734375 104.605469 223.808594 105.960938 223.792969 108.125 C 223.789063 108.609375 223.765625 109.714844 223.753906 111.367188 C 223.742188 112.894531 223.796875 114.269531 223.792969 115.5625 C 223.78125 117.832031 223.691406 118.664063 223.273438 118.703125 C 223.023438 118.726563 222.746094 118.605469 222.394531 118.636719 C 222.332031 118.644531 222.289063 118.648438 222.226563 118.652344 C 221.578125 118.714844 221.496094 118.378906 221.226563 117.875 C 219.539063 114.558594 218.675781 112.839844 218.683594 112.6875 C 218.679688 112.625 218.519531 112.34375 218.214844 111.609375 C 218.15625 111.464844 218.027344 111.375 217.984375 111.378906 C 217.945313 111.382813 217.945313 111.464844 217.945313 111.636719 C 217.929688 112.757813 218.101563 113.910156 218.089844 115.121094 C 218.082031 115.585938 218.035156 116.074219 218.03125 116.605469 C 218.03125 116.882813 218.066406 117.425781 218.054688 118.230469 C 218.058594 118.296875 218.054688 118.339844 218.058594 118.402344 C 218.046875 119.3125 218.019531 119.675781 217.367188 119.738281 C 216.84375 119.785156 216.695313 119.523438 216.363281 119.484375 C 216.09375 119.449219 215.820313 119.515625 215.824219 119.328125 C 215.824219 119.15625 215.84375 119.011719 215.847656 118.925781 C 215.855469 118.394531 215.722656 117.347656 215.742188 115.695313 "/>
<path style=" stroke:none;fill-rule:nonzero;fill:rgb(13.699341%,12.199402%,12.5%);fill-opacity:1;" d="M 229.753906 115.78125 C 229.753906 115.550781 229.816406 115.304688 229.820313 115.09375 C 229.824219 113.886719 229.769531 112.660156 229.777344 111.429688 C 229.777344 110.535156 229.847656 109.660156 229.851563 108.816406 C 229.863281 107.089844 229.949219 106.296875 229.949219 106.167969 C 229.949219 106.019531 229.910156 105.878906 229.914063 105.773438 C 229.910156 105.730469 229.953125 105.707031 230.054688 105.699219 C 231.734375 105.546875 232.53125 106.726563 232.527344 109.53125 C 232.523438 110.910156 232.125 112.265625 231.390625 113.8125 C 230.867188 114.917969 230.003906 115.886719 229.941406 115.890625 C 229.859375 115.898438 229.75 115.847656 229.753906 115.78125 Z M 229.761719 118.625 C 229.953125 118.605469 231.269531 117.835938 231.988281 117.101563 C 234.039063 114.964844 235.167969 112.171875 235.164063 109.28125 C 235.164063 105.222656 232.488281 102.851563 229.269531 103.132813 C 228.261719 103.222656 227.433594 103.507813 227.429688 103.847656 C 227.425781 103.972656 227.589844 104.214844 227.585938 104.554688 C 227.585938 104.851563 227.539063 105.152344 227.535156 105.449219 C 227.527344 106.660156 227.519531 107.464844 227.515625 107.914063 C 227.507813 108.632813 227.484375 109.359375 227.476563 110.082031 C 227.46875 110.972656 227.523438 111.75 227.519531 112.449219 C 227.511719 113.808594 227.398438 114.878906 227.394531 115.621094 C 227.390625 116.003906 227.449219 116.484375 227.445313 117.101563 C 227.441406 117.25 227.402344 117.402344 227.398438 117.53125 C 227.398438 117.804688 227.816406 117.945313 228.550781 118.175781 C 229.15625 118.378906 229.511719 118.648438 229.761719 118.625 "/>
<path style=" stroke:none;fill-rule:nonzero;fill:rgb(13.699341%,12.199402%,12.5%);fill-opacity:1;" d="M 238.476563 116.425781 C 237.851563 116.140625 237.140625 114.871094 237.144531 114.339844 C 237.144531 114.167969 237.230469 113.996094 237.230469 113.828125 C 237.230469 113.765625 237.164063 113.679688 237.167969 113.574219 C 237.167969 113.359375 237.355469 113.199219 237.605469 113.179688 C 237.980469 113.148438 238.402344 113.347656 238.835938 113.78125 C 239.710938 114.644531 240.441406 115.460938 241.324219 115.390625 C 241.867188 115.347656 242.257813 114.828125 242.257813 114.085938 C 242.253906 112.804688 241.484375 111.957031 240.234375 110.820313 C 238.945313 109.652344 238.179688 108.757813 238.183594 107.097656 C 238.191406 105.777344 238.6875 104.570313 239.722656 103.402344 C 240.488281 102.53125 241.308594 102.101563 241.679688 102.070313 C 241.789063 102.058594 242.757813 102.257813 243.101563 102.527344 C 243.929688 103.160156 244.363281 103.484375 244.363281 103.484375 C 244.695313 103.84375 245.152344 105.015625 245.160156 106.082031 C 245.164063 107.273438 244.878906 107.914063 244.296875 107.960938 C 243.59375 108.019531 243.136719 107.667969 242.71875 107.085938 C 242.179688 106.324219 242.363281 104.589844 242.113281 104.609375 C 241.617188 104.652344 240.585938 105.835938 240.585938 106.855469 C 240.585938 108.007813 241.601563 108.667969 242.808594 109.800781 C 244.371094 111.273438 245.128906 112.703125 245.136719 113.914063 C 245.140625 114.550781 244.75 115.304688 243.957031 116.285156 C 243.335938 117.082031 242.578125 117.523438 241.804688 117.582031 C 239.546875 117.765625 239.003906 116.660156 238.476563 116.425781 "/>
<path style=" stroke:none;fill-rule:nonzero;fill:rgb(13.699341%,12.199402%,12.5%);fill-opacity:1;" d="M 258.695313 102.828125 C 258.882813 102.8125 259.433594 103.199219 259.664063 103.648438 C 259.9375 104.1875 260.414063 106.007813 260.40625 107.308594 C 260.386719 111.316406 258.867188 114.402344 257.640625 114.488281 C 257.367188 114.511719 256.257813 112.921875 256.269531 109.707031 C 256.277344 107.597656 256.601563 105.894531 257.671875 104.113281 C 258.183594 103.265625 258.378906 102.847656 258.695313 102.828125 Z M 253.746094 109.496094 C 253.738281 112.4375 254.511719 113.898438 255.863281 115.273438 C 256.304688 115.730469 256.769531 116.003906 257.253906 116.070313 C 258.078125 116.183594 258.460938 116.347656 258.523438 116.34375 C 258.710938 116.335938 258.882813 116.277344 259.050781 116.261719 C 259.09375 116.261719 259.136719 116.257813 259.175781 116.257813 C 259.769531 116.214844 260.8125 115.355469 261.585938 114.003906 C 262.390625 112.558594 263.085938 110.148438 263.097656 107.757813 C 263.109375 105.777344 262.523438 103.878906 261.640625 102.597656 C 261.113281 101.847656 260.695313 101.515625 259.992188 101.433594 C 259.292969 101.355469 258.320313 100.804688 257.75 100.851563 C 257.171875 100.890625 256.347656 101.265625 255.921875 101.828125 C 254.792969 103.277344 253.761719 106.34375 253.746094 109.496094 "/>
<path style=" stroke:none;fill-rule:nonzero;fill:rgb(13.699341%,12.199402%,12.5%);fill-opacity:1;" d="M 266.039063 113.578125 C 266.046875 113.171875 266.070313 112.828125 266.078125 112.53125 C 266.082031 111.824219 266.03125 111 266.039063 110.058594 C 266.0625 108.054688 266.101563 106.171875 266.125 104.421875 C 266.132813 103.996094 266.175781 103.335938 266.1875 102.480469 C 266.191406 102.203125 266.15625 101.84375 266.160156 101.355469 C 266.164063 101.015625 266.230469 100.902344 266.398438 100.871094 C 267.847656 100.542969 268.71875 100.464844 268.804688 100.457031 C 270.410156 100.355469 271.261719 100.320313 271.535156 100.535156 C 272.101563 101.015625 272.371094 101.445313 272.359375 102.019531 C 272.355469 102.53125 272.207031 102.648438 271.929688 102.667969 C 271.742188 102.675781 270.683594 102.789063 268.683594 102.917969 C 268.472656 102.925781 268.410156 103.066406 268.40625 103.28125 C 268.40625 103.53125 268.480469 103.867188 268.476563 104.296875 C 268.472656 104.699219 268.382813 105.433594 268.367188 106.457031 C 268.363281 106.519531 268.410156 106.539063 268.515625 106.53125 C 268.621094 106.527344 269.089844 106.453125 269.867188 106.402344 C 271.289063 106.308594 271.941406 107.015625 271.929688 107.679688 C 271.925781 107.914063 271.777344 108.175781 271.621094 108.566406 C 271.5625 108.746094 271.21875 108.765625 270.621094 108.867188 C 270.265625 108.894531 269.96875 108.914063 269.734375 108.925781 C 269.503906 108.945313 269.328125 108.953125 269.164063 108.960938 C 268.59375 109 268.464844 109.03125 268.464844 109.242188 C 268.457031 109.285156 268.480469 109.453125 268.476563 109.734375 C 268.464844 110.585938 268.363281 112.085938 268.34375 114.199219 C 268.335938 114.28125 268.339844 114.371094 268.332031 114.433594 C 268.328125 115.222656 268.277344 115.738281 267.519531 115.78125 C 267.074219 115.8125 266.023438 115.304688 266.027344 114.941406 C 266.027344 114.859375 266.089844 114.722656 266.09375 114.554688 C 266.097656 114.214844 266.035156 113.875 266.039063 113.578125 "/>
<path style=" stroke:none;fill-rule:nonzero;fill:rgb(13.699341%,12.199402%,12.5%);fill-opacity:1;" d="M 283.277344 108.035156 C 283.1875 108.058594 283.179688 108.269531 283.171875 108.699219 C 283.167969 108.976563 283.15625 109.363281 283.144531 109.855469 C 283.117188 111.222656 283.027344 112.058594 283.027344 112.355469 C 283.019531 112.59375 283.035156 112.847656 283.03125 113.105469 C 283.023438 113.386719 282.976563 113.621094 282.96875 113.832031 C 282.96875 113.976563 283.003906 114.132813 283 114.257813 C 282.996094 114.40625 282.824219 114.589844 282.726563 114.597656 C 282.609375 114.601563 282.445313 114.546875 282.214844 114.5625 C 282.191406 114.558594 282.109375 114.566406 282 114.574219 C 281.726563 114.585938 281.222656 114.40625 281 114.113281 C 280.707031 113.789063 280.722656 113.125 280.746094 112.164063 C 280.804688 109.429688 280.785156 107.59375 280.8125 106.613281 C 280.855469 104.554688 281.058594 102.992188 281.082031 101.945313 C 281.085938 101.730469 281.074219 101.367188 281.085938 100.875 C 281.089844 100.492188 281.386719 99.730469 281.789063 99.703125 C 283.042969 99.632813 283.484375 99.652344 283.460938 100.847656 C 283.445313 101.402344 283.367188 102.089844 283.347656 102.886719 C 283.332031 103.570313 283.386719 104.246094 283.367188 104.929688 C 283.359375 105.144531 283.316406 105.277344 283.3125 105.359375 C 283.3125 105.445313 283.332031 105.488281 283.398438 105.480469 C 283.5625 105.476563 283.773438 105.421875 284.007813 105.410156 C 284.140625 105.402344 284.285156 105.414063 284.414063 105.40625 C 284.878906 105.382813 285.285156 105.230469 285.601563 105.214844 C 285.773438 105.203125 285.882813 105.242188 285.9375 105.238281 C 286.046875 105.230469 286.1875 103.75 286.257813 100.820313 C 286.277344 100.070313 286.230469 99.480469 286.238281 98.984375 C 286.25 98.429688 286.359375 98.210938 286.980469 98.175781 C 287.722656 98.132813 288.667969 98.445313 288.652344 99.042969 C 288.644531 99.296875 288.597656 99.539063 288.59375 99.753906 C 288.589844 100.03125 288.648438 100.28125 288.640625 100.519531 C 288.628906 100.96875 288.527344 101.636719 288.507813 102.507813 C 288.484375 103.171875 288.578125 104.039063 288.550781 105.113281 C 288.539063 105.800781 288.453125 106.554688 288.425781 107.40625 C 288.417969 108.050781 288.4375 108.773438 288.414063 109.585938 C 288.390625 111.019531 288.210938 112.117188 288.195313 112.847656 C 288.195313 112.910156 288.191406 113.082031 288.183594 113.378906 C 288.175781 113.769531 287.957031 114.011719 287.703125 114.023438 C 286.558594 114.085938 285.996094 113.648438 286.011719 112.960938 C 286.015625 112.902344 286.019531 112.769531 286.019531 112.578125 C 286.042969 111.769531 285.941406 110.707031 285.972656 109.398438 C 285.984375 108.761719 286.039063 108.351563 286.046875 108.179688 C 286.054688 107.773438 286.011719 107.601563 285.820313 107.613281 C 285.441406 107.636719 285.015625 107.808594 284.546875 107.835938 C 284.480469 107.839844 284.359375 107.824219 284.207031 107.832031 C 284.1875 107.832031 283.867188 107.894531 283.277344 108.035156 "/>
<path style=" stroke:none;fill-rule:nonzero;fill:rgb(13.699341%,12.199402%,12.5%);fill-opacity:1;" d="M 296.652344 100.554688 C 296.839844 100.546875 297.378906 100.949219 297.597656 101.40625 C 297.851563 101.949219 298.28125 103.789063 298.242188 105.089844 C 298.113281 109.117188 296.511719 112.191406 295.285156 112.25 C 295.011719 112.261719 293.9375 110.648438 294.039063 107.417969 C 294.105469 105.296875 294.476563 103.589844 295.589844 101.828125 C 296.125 100.984375 296.328125 100.574219 296.652344 100.554688 Z M 291.53125 107.15625 C 291.445313 110.105469 292.171875 111.589844 293.484375 113.003906 C 293.914063 113.46875 294.371094 113.746094 294.859375 113.832031 C 295.675781 113.960938 296.050781 114.132813 296.109375 114.136719 C 296.304688 114.125 296.476563 114.074219 296.644531 114.066406 C 296.6875 114.066406 296.726563 114.066406 296.777344 114.0625 C 297.363281 114.03125 298.429688 113.1875 299.234375 111.84375 C 300.082031 110.414063 300.835938 108.003906 300.914063 105.605469 C 300.976563 103.613281 300.449219 101.695313 299.597656 100.390625 C 299.09375 99.625 298.683594 99.28125 297.984375 99.1875 C 297.285156 99.09375 296.332031 98.523438 295.757813 98.546875 C 295.179688 98.578125 294.347656 98.941406 293.902344 99.496094 C 292.738281 100.921875 291.625 103.988281 291.53125 107.15625 "/>
<path style=" stroke:none;fill-rule:nonzero;fill:rgb(13.699341%,12.199402%,12.5%);fill-opacity:1;" d="M 304.179688 100.671875 C 304.253906 99.277344 304.34375 98.652344 304.640625 98.636719 C 305.527344 98.597656 306.65625 99.042969 306.640625 99.386719 C 306.640625 99.472656 306.546875 99.773438 306.523438 100.375 C 306.511719 100.613281 306.523438 100.933594 306.507813 101.277344 C 306.457031 102.542969 306.144531 104.542969 306.039063 107.328125 C 305.925781 110.070313 306.3125 111.449219 307.226563 111.40625 C 308.839844 111.339844 308.988281 109.195313 309.195313 103.921875 C 309.234375 102.976563 309.179688 101.824219 309.230469 100.453125 C 309.246094 100.042969 309.261719 99.699219 309.273438 99.421875 C 309.308594 98.476563 309.363281 98.136719 309.789063 98.117188 C 310.578125 98.082031 311.8125 98.347656 311.800781 98.714844 C 311.796875 98.867188 311.722656 99.0625 311.714844 99.277344 C 311.707031 99.488281 311.71875 99.65625 311.710938 99.871094 C 311.695313 100.238281 311.636719 100.6875 311.617188 101.207031 C 311.574219 102.191406 311.597656 104.207031 311.476563 107.269531 C 311.375 109.757813 311.035156 111.375 310.390625 112.171875 C 309.695313 113.035156 308.726563 113.589844 307.859375 113.628906 C 307.328125 113.652344 306.539063 113.320313 305.316406 112.753906 C 304.859375 112.53125 304.386719 112.019531 304.082031 111.300781 C 303.59375 110.191406 303.605469 108.84375 303.6875 106.847656 C 303.796875 103.785156 304.117188 101.742188 304.179688 100.671875 "/>
<path style=" stroke:none;fill-rule:nonzero;fill:rgb(13.699341%,12.199402%,12.5%);fill-opacity:1;" d="M 315.175781 111.878906 C 314.558594 111.558594 313.902344 110.253906 313.921875 109.71875 C 313.9375 109.546875 314.023438 109.371094 314.03125 109.199219 C 314.03125 109.136719 313.976563 109.050781 313.984375 108.941406 C 313.992188 108.734375 314.1875 108.574219 314.445313 108.5625 C 314.820313 108.550781 315.238281 108.769531 315.660156 109.226563 C 316.511719 110.136719 317.210938 110.988281 318.09375 110.957031 C 318.648438 110.941406 319.078125 110.433594 319.109375 109.679688 C 319.171875 108.390625 318.433594 107.5 317.21875 106.300781 C 315.964844 105.058594 315.226563 104.125 315.300781 102.453125 C 315.363281 101.121094 315.929688 99.921875 317.042969 98.785156 C 317.867188 97.945313 318.730469 97.546875 319.109375 97.535156 C 319.21875 97.53125 320.203125 97.769531 320.550781 98.058594 C 321.367188 98.738281 321.796875 99.089844 321.796875 99.089844 C 322.117188 99.460938 322.523438 100.660156 322.476563 101.738281 C 322.417969 102.941406 322.089844 103.574219 321.5 103.597656 C 320.773438 103.621094 320.328125 103.246094 319.933594 102.644531 C 319.417969 101.851563 319.691406 100.105469 319.4375 100.113281 C 318.925781 100.136719 317.808594 101.285156 317.761719 102.316406 C 317.707031 103.472656 318.71875 104.191406 319.886719 105.386719 C 321.398438 106.941406 322.089844 108.414063 322.035156 109.640625 C 322 110.285156 321.566406 111.027344 320.714844 111.980469 C 320.042969 112.75 319.265625 113.167969 318.480469 113.195313 C 316.1875 113.277344 315.699219 112.140625 315.175781 111.878906 "/>
<path style=" stroke:none;fill-rule:nonzero;fill:rgb(13.699341%,12.199402%,12.5%);fill-opacity:1;" d="M 325.539063 112.058594 C 325.320313 111.800781 325.277344 110.648438 325.398438 108.503906 C 325.679688 103.21875 325.941406 99.953125 326.15625 98.703125 C 326.277344 98.035156 326.359375 97.707031 326.890625 97.695313 C 327.105469 97.683594 327.222656 97.875 327.457031 97.867188 C 327.710938 97.859375 329.027344 97.367188 330.894531 97.3125 C 331.234375 97.300781 332.027344 98.050781 331.96875 99.101563 C 331.933594 99.574219 331.730469 99.539063 330.253906 99.820313 C 328.945313 100.074219 328.300781 99.8125 328.273438 100.347656 C 328.269531 100.433594 328.285156 100.523438 328.28125 100.632813 C 328.238281 101.339844 328.0625 102.242188 328.011719 103.25 C 327.996094 103.464844 328.015625 103.511719 328.25 103.503906 C 328.519531 103.496094 329.347656 103.253906 330.722656 103.214844 C 331.464844 103.191406 331.832031 103.78125 331.785156 104.703125 C 331.769531 105.003906 331.800781 105.175781 331.796875 105.238281 C 331.777344 105.558594 331.246094 105.554688 330.054688 105.722656 C 328.429688 105.941406 327.808594 105.875 327.777344 106.328125 C 327.773438 106.390625 327.78125 106.644531 327.753906 107.121094 C 327.710938 108.109375 327.648438 108.753906 327.632813 109.03125 C 327.628906 109.179688 327.574219 109.378906 327.554688 109.613281 C 327.535156 109.914063 327.597656 110.0625 327.703125 110.058594 C 328.652344 110.03125 329.878906 109.628906 330.605469 109.609375 C 330.945313 109.601563 331.671875 110.175781 331.632813 110.90625 C 331.625 111.082031 331.589844 111.273438 331.582031 111.445313 C 331.574219 111.570313 331.71875 111.695313 331.707031 111.828125 C 331.703125 111.914063 331.660156 111.890625 331.511719 111.917969 C 330.488281 112.035156 329.738281 112.296875 329.203125 112.394531 C 327.835938 112.648438 326.753906 112.769531 326.730469 112.765625 C 326.667969 112.773438 325.839844 112.386719 325.539063 112.058594 "/>
<path style=" stroke:none;fill-rule:nonzero;fill:rgb(13.699341%,12.199402%,12.5%);fill-opacity:1;" d="M 335.390625 111.230469 C 334.773438 110.902344 334.136719 109.589844 334.167969 109.050781 C 334.179688 108.882813 334.277344 108.707031 334.285156 108.535156 C 334.289063 108.46875 334.230469 108.382813 334.234375 108.277344 C 334.25 108.0625 334.449219 107.90625 334.707031 107.902344 C 335.085938 107.890625 335.503906 108.117188 335.910156 108.578125 C 336.742188 109.503906 337.433594 110.367188 338.324219 110.34375 C 338.871094 110.332031 339.304688 109.824219 339.347656 109.074219 C 339.433594 107.78125 338.703125 106.875 337.511719 105.667969 C 336.273438 104.40625 335.546875 103.457031 335.648438 101.78125 C 335.730469 100.449219 336.3125 99.253906 337.445313 98.132813 C 338.277344 97.296875 339.148438 96.910156 339.535156 96.898438 C 339.636719 96.894531 340.617188 97.152344 340.964844 97.441406 C 341.769531 98.132813 342.191406 98.480469 342.191406 98.480469 C 342.507813 98.863281 342.894531 100.074219 342.828125 101.148438 C 342.753906 102.355469 342.417969 102.984375 341.824219 103 C 341.105469 103.023438 340.660156 102.644531 340.273438 102.03125 C 339.769531 101.226563 340.074219 99.480469 339.816406 99.484375 C 339.308594 99.5 338.179688 100.648438 338.117188 101.679688 C 338.042969 102.839844 339.035156 103.566406 340.1875 104.777344 C 341.675781 106.355469 342.347656 107.839844 342.273438 109.066406 C 342.234375 109.714844 341.785156 110.453125 340.917969 111.398438 C 340.238281 112.164063 339.449219 112.570313 338.671875 112.589844 C 336.378906 112.640625 335.902344 111.5 335.390625 111.230469 "/>
<path style=" stroke:none;fill-rule:nonzero;fill:rgb(13.699341%,12.199402%,12.5%);fill-opacity:1;" d="M 344.863281 112.859375 C 345.164063 111.542969 345.746094 110.109375 345.988281 109.679688 C 346.136719 109.414063 346.230469 109.523438 346.515625 109.433594 C 346.683594 109.382813 346.660156 109.125 346.980469 109.121094 C 347.121094 109.117188 348.066406 109.59375 348.042969 109.914063 C 348.027344 110.171875 347.246094 111.351563 346.253906 113.515625 C 345.804688 114.492188 345.460938 115.253906 345.1875 115.257813 C 344.785156 115.265625 344.351563 114.539063 344.351563 114.523438 C 344.371094 114.15625 344.691406 113.570313 344.863281 112.859375 "/>
<path style=" stroke:none;fill-rule:nonzero;fill:rgb(13.699341%,12.199402%,12.5%);fill-opacity:1;" d="M 362.453125 98.535156 C 362.644531 98.535156 363.164063 98.957031 363.359375 99.429688 C 363.59375 99.980469 363.929688 101.851563 363.828125 103.164063 C 363.507813 107.21875 361.765625 110.246094 360.53125 110.265625 C 360.257813 110.265625 359.265625 108.597656 359.523438 105.347656 C 359.6875 103.214844 360.148438 101.507813 361.339844 99.773438 C 361.910156 98.949219 362.132813 98.539063 362.453125 98.535156 Z M 357.03125 104.988281 C 356.800781 107.960938 357.464844 109.476563 358.703125 110.949219 C 359.109375 111.4375 359.550781 111.738281 360.03125 111.839844 C 360.84375 112 361.207031 112.191406 361.273438 112.191406 C 361.457031 112.1875 361.632813 112.148438 361.804688 112.140625 C 361.84375 112.140625 361.886719 112.140625 361.929688 112.140625 C 362.523438 112.132813 363.621094 111.324219 364.492188 110 C 365.40625 108.589844 366.273438 106.195313 366.472656 103.78125 C 366.628906 101.773438 366.1875 99.824219 365.402344 98.476563 C 364.9375 97.683594 364.546875 97.328125 363.855469 97.203125 C 363.164063 97.089844 362.234375 96.472656 361.664063 96.476563 C 361.089844 96.488281 360.234375 96.820313 359.773438 97.359375 C 358.53125 98.753906 357.277344 101.800781 357.03125 104.988281 "/>
<path style=" stroke:none;fill-rule:nonzero;fill:rgb(13.699341%,12.199402%,12.5%);fill-opacity:1;" d="M 369.007813 107.902344 C 369.058594 107.382813 369.15625 106.714844 369.226563 105.957031 C 369.25 105.65625 369.292969 105.183594 369.351563 104.515625 C 369.425781 103.675781 369.570313 102.679688 369.671875 101.566406 C 369.910156 98.78125 370.167969 97.296875 370.175781 97.207031 C 370.203125 97.097656 370.324219 97.015625 370.511719 97.015625 C 370.894531 97.003906 371.925781 97.332031 372.171875 97.472656 C 372.472656 97.671875 372.667969 98.554688 373.0625 100.082031 C 374.015625 103.738281 374.863281 105.863281 374.890625 105.867188 C 374.949219 105.871094 374.980469 105.800781 374.992188 105.632813 C 375.003906 105.523438 374.988281 104.941406 375.085938 103.886719 C 375.503906 99.121094 375.855469 96.578125 375.867188 96.492188 C 375.910156 96.144531 375.984375 96.082031 376.410156 96.078125 C 377.699219 96.074219 378.066406 96.265625 378.019531 96.847656 C 377.980469 97.339844 377.933594 98.71875 377.742188 100.917969 C 377.699219 101.414063 377.578125 102.535156 377.429688 104.21875 C 377.292969 105.769531 377.230469 107.171875 377.113281 108.484375 C 376.910156 110.792969 376.753906 111.632813 376.324219 111.636719 C 376.074219 111.636719 375.808594 111.488281 375.449219 111.488281 C 375.386719 111.488281 375.34375 111.492188 375.28125 111.492188 C 374.625 111.492188 374.574219 111.148438 374.347656 110.613281 C 372.917969 107.085938 372.1875 105.257813 372.203125 105.105469 C 372.203125 105.039063 372.0625 104.738281 371.8125 103.964844 C 371.765625 103.816406 371.644531 103.703125 371.601563 103.707031 C 371.558594 103.707031 371.554688 103.792969 371.539063 103.964844 C 371.441406 105.105469 371.527344 106.289063 371.417969 107.519531 C 371.378906 107.992188 371.289063 108.492188 371.242188 109.027344 C 371.222656 109.308594 371.214844 109.871094 371.140625 110.6875 C 371.136719 110.753906 371.132813 110.796875 371.125 110.863281 C 371.042969 111.785156 370.992188 112.152344 370.339844 112.152344 C 369.8125 112.160156 369.683594 111.878906 369.351563 111.820313 C 369.082031 111.757813 368.804688 111.800781 368.820313 111.605469 C 368.835938 111.433594 368.867188 111.28125 368.878906 111.195313 C 368.925781 110.65625 368.867188 109.582031 369.007813 107.902344 "/>
<path style=" stroke:none;fill-rule:nonzero;fill:rgb(13.699341%,12.199402%,12.5%);fill-opacity:1;" d="M 380.890625 111.183594 C 380.679688 110.921875 380.683594 109.761719 380.890625 107.601563 C 381.398438 102.296875 381.796875 99.019531 382.0625 97.769531 C 382.210938 97.101563 382.304688 96.777344 382.832031 96.777344 C 383.046875 96.777344 383.15625 96.96875 383.390625 96.96875 C 383.644531 96.972656 384.980469 96.523438 386.851563 96.523438 C 387.191406 96.527344 387.941406 97.304688 387.839844 98.363281 C 387.792969 98.839844 387.585938 98.792969 386.105469 99.027344 C 384.785156 99.238281 384.15625 98.957031 384.101563 99.496094 C 384.097656 99.585938 384.109375 99.667969 384.097656 99.777344 C 384.027344 100.488281 383.8125 101.394531 383.71875 102.40625 C 383.695313 102.625 383.714844 102.667969 383.945313 102.667969 C 384.222656 102.675781 385.050781 102.457031 386.425781 102.453125 C 387.171875 102.460938 387.511719 103.066406 387.421875 103.992188 C 387.394531 104.292969 387.417969 104.46875 387.414063 104.53125 C 387.382813 104.855469 386.851563 104.832031 385.652344 104.957031 C 384.03125 105.128906 383.402344 105.042969 383.359375 105.496094 C 383.351563 105.558594 383.347656 105.820313 383.296875 106.292969 C 383.207031 107.285156 383.121094 107.933594 383.097656 108.214844 C 383.085938 108.363281 383.019531 108.554688 383 108.792969 C 382.96875 109.09375 383.019531 109.25 383.128906 109.246094 C 384.078125 109.25 385.320313 108.886719 386.039063 108.886719 C 386.378906 108.886719 387.078125 109.496094 387.011719 110.222656 C 386.988281 110.398438 386.953125 110.59375 386.9375 110.765625 C 386.921875 110.898438 387.0625 111.027344 387.046875 111.152344 C 387.039063 111.238281 387 111.21875 386.847656 111.238281 C 385.828125 111.324219 385.0625 111.558594 384.527344 111.648438 C 383.152344 111.855469 382.0625 111.941406 382.039063 111.941406 C 381.980469 111.941406 381.171875 111.527344 380.890625 111.183594 "/>
<path style=" stroke:none;fill-rule:nonzero;fill:rgb(13.699341%,12.199402%,12.5%);fill-opacity:1;" d="M 398.320313 101.910156 C 399.605469 98.296875 400.019531 96.417969 400.574219 96.429688 C 402.125 96.445313 403.578125 97.113281 403.5625 97.285156 C 403.554688 97.347656 403.519531 97.410156 403.511719 97.5 C 403.511719 97.523438 403.535156 98.257813 403.6875 99.621094 C 403.757813 100.3125 403.710938 100.941406 403.742188 101.433594 C 403.765625 101.980469 403.949219 102.824219 403.941406 104.078125 C 403.929688 104.164063 403.945313 105.746094 404.160156 108.617188 C 404.183594 108.96875 404.296875 109.722656 404.285156 110.957031 C 404.277344 111.429688 404.402344 111.613281 404.394531 111.671875 C 404.390625 111.78125 404.101563 112.039063 403.871094 112.035156 C 403.746094 112.035156 403.625 111.945313 403.5 111.945313 C 403.289063 111.941406 403.140625 112.109375 402.953125 112.105469 C 402.292969 112.101563 402.183594 111.425781 402.019531 110.585938 C 401.644531 108.609375 401.921875 107.742188 401.480469 107.738281 C 401.394531 107.742188 400.855469 107.90625 399.546875 108.003906 C 398.90625 108.039063 398.5625 108.097656 398.441406 108.3125 C 398.195313 108.738281 398.15625 109.257813 397.957031 109.792969 C 397.65625 110.589844 397.285156 111.300781 397.195313 112.101563 C 397.171875 112.359375 396.925781 112.855469 396.375 112.847656 C 395.550781 112.832031 395.058594 112.507813 395.085938 112.246094 C 395.097656 112.140625 395.152344 112.027344 395.160156 111.925781 C 395.335938 110.308594 396.53125 106.964844 398.320313 101.910156 Z M 399.613281 105.601563 C 401.480469 105.621094 401.652344 105.601563 401.699219 105.195313 C 401.714844 105.0625 401.5 104.085938 401.382813 102.054688 C 401.328125 100.996094 401.414063 100.414063 401.222656 100.410156 C 401.097656 100.40625 400.957031 101.082031 400.550781 102.285156 C 399.808594 104.457031 399.371094 105.382813 399.355469 105.46875 C 399.351563 105.554688 399.445313 105.597656 399.613281 105.601563 "/>
<path style=" stroke:none;fill-rule:nonzero;fill:rgb(13.699341%,12.199402%,12.5%);fill-opacity:1;" d="M 409.691406 109.515625 C 409.71875 109.28125 409.808594 109.046875 409.839844 108.832031 C 409.980469 107.597656 410.066406 106.347656 410.214844 105.09375 C 410.320313 104.183594 410.484375 103.304688 410.589844 102.4375 C 410.792969 100.6875 410.976563 99.886719 410.988281 99.761719 C 411.007813 99.609375 410.980469 99.453125 410.996094 99.347656 C 411 99.304688 411.046875 99.28125 411.148438 99.285156 C 412.867188 99.320313 413.542969 100.609375 413.203125 103.460938 C 413.035156 104.863281 412.476563 106.195313 411.5625 107.691406 C 410.902344 108.765625 409.925781 109.652344 409.867188 109.652344 C 409.785156 109.652344 409.683594 109.582031 409.691406 109.515625 Z M 409.371094 112.410156 C 409.5625 112.417969 410.96875 111.773438 411.769531 111.09375 C 414.074219 109.148438 415.542969 106.425781 415.894531 103.488281 C 416.386719 99.363281 413.941406 96.652344 410.640625 96.59375 C 409.597656 96.570313 408.730469 96.769531 408.6875 97.113281 C 408.667969 97.246094 408.808594 97.507813 408.769531 97.851563 C 408.738281 98.15625 408.65625 98.457031 408.625 98.761719 C 408.476563 99.992188 408.382813 100.816406 408.328125 101.265625 C 408.242188 102 408.136719 102.730469 408.050781 103.46875 C 407.945313 104.378906 407.914063 105.175781 407.824219 105.886719 C 407.667969 107.269531 407.433594 108.347656 407.347656 109.105469 C 407.300781 109.492188 407.308594 109.992188 407.230469 110.621094 C 407.21875 110.769531 407.15625 110.921875 407.144531 111.050781 C 407.109375 111.332031 407.511719 111.507813 408.214844 111.828125 C 408.800781 112.097656 409.117188 112.40625 409.371094 112.410156 "/>
<path style=" stroke:none;fill-rule:nonzero;fill:rgb(13.699341%,12.199402%,12.5%);fill-opacity:1;" d="M 420.457031 109.761719 C 420.488281 109.523438 420.582031 109.285156 420.609375 109.070313 C 420.765625 107.839844 420.859375 106.585938 421.019531 105.328125 C 421.132813 104.421875 421.308594 103.535156 421.414063 102.675781 C 421.644531 100.917969 421.828125 100.125 421.847656 99.996094 C 421.859375 99.847656 421.839844 99.691406 421.855469 99.585938 C 421.859375 99.542969 421.902344 99.523438 422.007813 99.527344 C 423.730469 99.570313 424.386719 100.867188 424.023438 103.714844 C 423.84375 105.125 423.269531 106.453125 422.339844 107.949219 C 421.675781 109.011719 420.695313 109.898438 420.632813 109.894531 C 420.546875 109.894531 420.449219 109.828125 420.457031 109.761719 Z M 420.109375 112.65625 C 420.300781 112.664063 421.714844 112.027344 422.519531 111.355469 C 424.84375 109.421875 426.335938 106.707031 426.710938 103.773438 C 427.242188 99.644531 424.828125 96.910156 421.519531 96.820313 C 420.484375 96.796875 419.609375 96.992188 419.566406 97.339844 C 419.554688 97.46875 419.6875 97.726563 419.644531 98.078125 C 419.605469 98.382813 419.527344 98.679688 419.484375 98.984375 C 419.332031 100.214844 419.230469 101.035156 419.171875 101.488281 C 419.074219 102.222656 418.96875 102.957031 418.875 103.691406 C 418.753906 104.597656 418.71875 105.402344 418.628906 106.117188 C 418.453125 107.496094 418.214844 108.574219 418.121094 109.332031 C 418.070313 109.71875 418.070313 110.21875 417.988281 110.847656 C 417.972656 111 417.914063 111.148438 417.890625 111.277344 C 417.863281 111.558594 418.265625 111.742188 418.960938 112.058594 C 419.535156 112.339844 419.859375 112.652344 420.109375 112.65625 "/>
<path style=" stroke:none;fill-rule:nonzero;fill:rgb(13.699341%,12.199402%,12.5%);fill-opacity:1;" d="M 432.011719 103.898438 C 432.050781 103.613281 432.246094 103.121094 432.339844 102.410156 C 432.367188 102.214844 432.398438 101.992188 432.433594 101.714844 C 432.480469 101.371094 432.546875 101.046875 432.585938 100.769531 C 432.59375 100.679688 432.601563 100.613281 432.613281 100.546875 C 432.644531 100.332031 432.664063 100.3125 432.957031 100.214844 C 433.625 99.996094 434.125 99.753906 434.652344 99.773438 C 434.804688 99.777344 434.964844 99.828125 435.152344 99.835938 C 435.21875 99.839844 435.414063 99.820313 435.707031 99.828125 C 436.238281 99.84375 436.449219 100.15625 436.382813 100.652344 C 436.191406 102.019531 435.324219 102.789063 434.265625 103.535156 C 433.1875 104.304688 432.449219 104.734375 432.070313 104.722656 C 431.964844 104.71875 431.945313 104.675781 431.953125 104.609375 C 431.957031 104.589844 431.96875 104.546875 431.964844 104.527344 C 431.976563 104.457031 431.988281 104.394531 431.992188 104.351563 C 432.003906 104.261719 431.980469 104.109375 432.011719 103.898438 Z M 430.402344 112.742188 C 430.640625 112.753906 430.726563 112.558594 430.777344 112.195313 C 430.792969 112.0625 430.789063 111.957031 430.808594 111.824219 C 430.859375 111.433594 430.992188 111.070313 431.046875 110.679688 C 431.117188 110.160156 431.167969 109.773438 431.199219 109.535156 C 431.332031 108.5625 431.503906 107.917969 431.558594 107.546875 C 431.59375 107.269531 431.558594 107.074219 431.570313 106.945313 C 431.585938 106.875 431.636719 106.816406 431.679688 106.816406 C 431.972656 106.828125 432.625 108.71875 433.9375 110.761719 C 434.929688 112.335938 435.394531 112.960938 436.199219 112.988281 C 436.40625 112.992188 436.480469 112.609375 436.582031 112.480469 C 436.742188 112.273438 437.019531 112.234375 437.050781 112.019531 C 437.105469 111.652344 436.675781 110.898438 436 109.464844 C 435.121094 107.539063 434.445313 106.566406 434.464844 106.453125 C 434.492188 106.238281 435.347656 106.050781 436.519531 104.914063 C 437.738281 103.765625 438.527344 102.816406 438.6875 101.644531 C 438.777344 101 438.300781 99.550781 437.722656 98.773438 C 437.21875 98.101563 436.191406 97.542969 435.195313 97.511719 C 433.203125 97.441406 432.523438 97.941406 432.417969 97.933594 C 432.121094 97.929688 431.652344 97.476563 431.480469 97.472656 C 431.460938 97.46875 431.042969 97.714844 430.804688 97.902344 C 430.78125 97.925781 430.375 99.214844 430.132813 101.015625 C 429.949219 102.390625 429.839844 103.175781 429.804688 103.410156 C 429.609375 104.855469 429.324219 106.519531 429.070313 108.351563 C 428.757813 110.691406 428.671875 111.96875 428.855469 112.148438 C 429.019531 112.328125 429.296875 112.335938 429.640625 112.433594 C 430.050781 112.558594 430.277344 112.742188 430.402344 112.742188 "/>
<path style=" stroke:none;fill-rule:nonzero;fill:rgb(13.699341%,12.199402%,12.5%);fill-opacity:1;" d="M 440.261719 112.367188 C 440.066406 112.09375 440.132813 110.925781 440.441406 108.765625 C 441.214844 103.445313 441.777344 100.160156 442.105469 98.914063 C 442.289063 98.25 442.398438 97.925781 442.925781 97.949219 C 443.140625 97.957031 443.234375 98.15625 443.46875 98.167969 C 443.722656 98.179688 445.078125 97.777344 446.9375 97.851563 C 447.273438 97.863281 447.984375 98.679688 447.832031 99.738281 C 447.761719 100.214844 447.558594 100.160156 446.066406 100.335938 C 444.742188 100.503906 444.128906 100.195313 444.050781 100.734375 C 444.039063 100.824219 444.046875 100.90625 444.03125 101.015625 C 443.929688 101.730469 443.664063 102.632813 443.519531 103.648438 C 443.492188 103.863281 443.503906 103.910156 443.734375 103.917969 C 444.011719 103.929688 444.84375 103.746094 446.214844 103.804688 C 446.960938 103.835938 447.269531 104.457031 447.125 105.386719 C 447.089844 105.691406 447.105469 105.863281 447.097656 105.929688 C 447.042969 106.257813 446.519531 106.210938 445.324219 106.292969 C 443.691406 106.398438 443.074219 106.289063 443.003906 106.738281 C 443 106.808594 442.980469 107.066406 442.917969 107.539063 C 442.769531 108.535156 442.652344 109.179688 442.609375 109.464844 C 442.589844 109.613281 442.523438 109.804688 442.480469 110.046875 C 442.4375 110.351563 442.484375 110.503906 442.585938 110.511719 C 443.53125 110.546875 444.789063 110.230469 445.503906 110.257813 C 445.84375 110.273438 446.515625 110.910156 446.402344 111.644531 C 446.382813 111.820313 446.328125 112.015625 446.304688 112.183594 C 446.285156 112.3125 446.414063 112.453125 446.394531 112.582031 C 446.386719 112.667969 446.34375 112.644531 446.191406 112.660156 C 445.167969 112.703125 444.398438 112.914063 443.859375 112.972656 C 442.484375 113.132813 441.394531 113.175781 441.371094 113.175781 C 441.308594 113.171875 440.523438 112.726563 440.261719 112.367188 "/>
<path style=" stroke:none;fill-rule:nonzero;fill:rgb(13.699341%,12.199402%,12.5%);fill-opacity:1;" d="M 450.070313 112.25 C 449.488281 111.875 448.980469 110.496094 449.066406 109.960938 C 449.09375 109.78125 449.199219 109.621094 449.226563 109.445313 C 449.234375 109.378906 449.1875 109.289063 449.203125 109.179688 C 449.234375 108.964844 449.449219 108.820313 449.703125 108.839844 C 450.089844 108.851563 450.464844 109.109375 450.835938 109.609375 C 451.570313 110.601563 452.171875 111.527344 453.054688 111.570313 C 453.605469 111.597656 454.082031 111.121094 454.195313 110.363281 C 454.394531 109.066406 453.765625 108.097656 452.691406 106.785156 C 451.589844 105.417969 450.957031 104.40625 451.21875 102.722656 C 451.421875 101.378906 452.113281 100.214844 453.335938 99.164063 C 454.25 98.382813 455.148438 98.050781 455.53125 98.074219 C 455.636719 98.078125 456.578125 98.410156 456.890625 98.726563 C 457.628906 99.480469 458.015625 99.871094 458.015625 99.871094 C 458.292969 100.273438 458.5625 101.53125 458.394531 102.613281 C 458.210938 103.824219 457.8125 104.441406 457.226563 104.40625 C 456.503906 104.375 456.101563 103.960938 455.773438 103.3125 C 455.355469 102.46875 455.820313 100.722656 455.566406 100.710938 C 455.0625 100.683594 453.828125 101.761719 453.671875 102.796875 C 453.492188 103.964844 454.402344 104.773438 455.429688 106.089844 C 456.761719 107.789063 457.285156 109.339844 457.089844 110.578125 C 456.988281 111.21875 456.476563 111.9375 455.527344 112.828125 C 454.78125 113.554688 453.964844 113.90625 453.1875 113.867188 C 450.917969 113.753906 450.550781 112.558594 450.070313 112.25 "/>
<path style=" stroke:none;fill-rule:nonzero;fill:rgb(13.699341%,12.199402%,12.5%);fill-opacity:1;" d="M 460.28125 112.773438 C 459.710938 112.390625 459.214844 111.007813 459.300781 110.46875 C 459.324219 110.296875 459.445313 110.128906 459.472656 109.953125 C 459.480469 109.886719 459.433594 109.796875 459.453125 109.6875 C 459.484375 109.46875 459.699219 109.335938 459.949219 109.347656 C 460.332031 109.371094 460.714844 109.632813 461.078125 110.128906 C 461.804688 111.136719 462.394531 112.0625 463.273438 112.113281 C 463.820313 112.148438 464.304688 111.671875 464.425781 110.917969 C 464.640625 109.617188 464.015625 108.644531 462.960938 107.316406 C 461.867188 105.945313 461.246094 104.921875 461.527344 103.234375 C 461.746094 101.898438 462.445313 100.734375 463.683594 99.695313 C 464.597656 98.917969 465.496094 98.59375 465.878906 98.617188 C 465.988281 98.621094 466.929688 98.960938 467.242188 99.289063 C 467.964844 100.042969 468.34375 100.441406 468.34375 100.441406 C 468.617188 100.847656 468.878906 102.105469 468.699219 103.191406 C 468.5 104.402344 468.097656 105.015625 467.511719 104.976563 C 466.796875 104.9375 466.394531 104.519531 466.078125 103.867188 C 465.667969 103.015625 466.148438 101.277344 465.894531 101.261719 C 465.386719 101.234375 464.144531 102.300781 463.976563 103.335938 C 463.785156 104.5 464.695313 105.316406 465.707031 106.644531 C 467.015625 108.355469 467.527344 109.914063 467.320313 111.148438 C 467.210938 111.796875 466.691406 112.503906 465.738281 113.390625 C 464.984375 114.113281 464.164063 114.460938 463.386719 114.414063 C 461.117188 114.28125 460.765625 113.082031 460.28125 112.773438 "/>
<path style=" stroke:none;fill-rule:nonzero;fill:rgb(13.699341%,12.199402%,12.5%);fill-opacity:1;" d="M 470.488281 111.933594 C 470.761719 111.453125 471.316406 111.3125 471.339844 111.316406 C 471.445313 111.324219 471.808594 111.566406 471.851563 111.566406 C 471.972656 111.574219 472.019531 111.550781 472.039063 111.550781 C 472.207031 111.570313 472.925781 112.683594 472.847656 113.140625 C 472.78125 113.546875 472.433594 114.183594 472.246094 114.171875 C 472.203125 114.167969 472.1875 114.144531 472.148438 114.144531 C 472.101563 114.140625 472.191406 114.363281 471.308594 114.574219 C 470.910156 114.65625 470.785156 114.777344 470.699219 114.773438 C 470.574219 114.769531 469.519531 114.242188 469.664063 113.394531 C 469.84375 112.355469 470.1875 112.464844 470.488281 111.933594 "/>
<path style=" stroke:none;fill-rule:nonzero;fill:rgb(0%,42.352295%,52.548218%);fill-opacity:1;" d="M 132.25 10.632813 C 137.863281 22.105469 123.035156 38.679688 117.65625 47.574219 C 114.414063 52.921875 110.863281 58.445313 108.308594 64.128906 C 106.808594 67.453125 104.640625 71.40625 104.832031 75.410156 C 104.949219 77.945313 106.390625 80.089844 106.035156 82.742188 C 105.613281 85.851563 103.527344 87.722656 100.132813 87.109375 C 98.054688 86.734375 96.464844 84.730469 94.957031 83.269531 C 85.023438 73.644531 100.429688 53.164063 105.390625 45.117188 C 107.921875 40.996094 121.476563 18.976563 121.332031 18.535156 C 120.691406 17.601563 100.984375 35.351563 72.128906 67.398438 C 70.652344 69.035156 67.589844 70.34375 65.289063 69.101563 C 54.117188 63.058594 81.550781 33.652344 81.550781 26.277344 C 75.652344 27.792969 59.796875 42.496094 44.542969 57.953125 C 37.433594 65.066406 29.164063 76.546875 26.421875 79.859375 C 23.867188 83.164063 21.601563 87.136719 18.226563 89.839844 C 16.46875 91.238281 13.363281 92.527344 11.289063 91.058594 C 3.316406 85.421875 18.027344 63.644531 23.984375 53.851563 C 38.839844 29.4375 44.585938 21.09375 43.210938 20.519531 C 40.136719 20.898438 37.957031 22.46875 35.300781 23.59375 C 13.828125 34.675781 8.808594 42.457031 5.914063 43.820313 C 4.183594 44.625 2.007813 43.851563 0.726563 42.652344 C -0.0273438 41.949219 -0.191406 40.484375 0 39.40625 C 1.203125 32.492188 38.425781 13.765625 48.25 12.957031 C 49.277344 12.957031 52.722656 12.445313 54.917969 14.871094 C 56.535156 16.660156 56.894531 19.695313 56.222656 22.285156 C 54.929688 27.285156 43.707031 43.960938 39.195313 51.421875 C 38.519531 52.761719 37.84375 54.105469 37.167969 55.445313 C 37.203125 55.5625 37.273438 55.679688 37.273438 55.617188 C 46.789063 45.464844 56.375 35.597656 66.269531 26.3125 C 70.898438 21.957031 76.410156 16.230469 81.757813 13.390625 C 85.140625 11.589844 90.367188 9.84375 93.207031 13.699219 C 97.832031 19.984375 88.210938 37.15625 88.667969 37.441406 C 90.105469 35.90625 91.546875 34.378906 92.980469 32.84375 C 98.492188 26.371094 118.03125 6.964844 125.765625 6.964844 C 128.21875 6.660156 131.113281 8.3125 132.25 10.632813 "/>
<path style=" stroke:none;fill-rule:nonzero;fill:rgb(0%,42.352295%,52.548218%);fill-opacity:1;" d="M 477.910156 11.15625 C 481.5 11.5 484.800781 15.308594 484.976563 18.902344 C 485.121094 21.96875 481.714844 26.761719 478.445313 26.816406 C 474.121094 26.886719 472.105469 20.453125 473.179688 16.980469 C 473.941406 14.503906 475.683594 12.53125 477.910156 11.15625 "/>
<path style=" stroke:none;fill-rule:nonzero;fill:rgb(0%,42.352295%,52.548218%);fill-opacity:1;" d="M 428.601563 30.929688 C 434.558594 39.21875 409.980469 53.605469 409.285156 54.285156 C 396.46875 62.789063 395.253906 67.261719 395.109375 68.21875 C 395.109375 68.28125 395.109375 68.339844 395.109375 68.398438 C 396.910156 68.398438 408.605469 71.855469 430.3125 50.3125 C 432.574219 48.148438 434.839844 45.988281 437.101563 43.820313 C 438.054688 43.101563 440.382813 41.707031 441.28125 43.34375 C 441.929688 44.519531 441.511719 46.207031 441.371094 47.519531 C 440.621094 54.199219 437.613281 56.0625 433.332031 60.347656 C 424.546875 69.128906 414.5 76.984375 402.636719 80.171875 C 400.691406 80.6875 394.628906 80.136719 392.761719 79.394531 C 388.097656 77.527344 386.945313 72.707031 385.390625 68.480469 C 384.675781 66.542969 383.011719 65.664063 383.390625 63.167969 C 383.851563 60.054688 385.6875 58.402344 386.9375 55.765625 C 391.511719 46.042969 396.617188 35.597656 406.84375 30.492188 C 408.859375 29.476563 423.398438 23.691406 428.601563 30.929688 Z M 416.710938 36.535156 C 405.996094 39.042969 400.132813 45.515625 399.070313 50.9375 C 403.988281 49.238281 414.265625 41.875 417.824219 37.683594 C 418.289063 37.28125 418.203125 35.984375 416.710938 36.535156 "/>
<g clip-path="url(#clip1)" clip-rule="nonzero">
<path style=" stroke:none;fill-rule:nonzero;fill:rgb(0%,42.352295%,52.548218%);fill-opacity:1;" d="M 508.152344 30.058594 C 511.8125 30.058594 516.671875 30.726563 518.332031 34.046875 C 522.65625 42.703125 502.324219 51.171875 487.980469 64.433594 C 486.082031 66.636719 480.875 73.191406 497.917969 67.390625 C 516.546875 58.039063 524.171875 47.476563 526.566406 45.273438 C 527.246094 44.804688 528.230469 44.289063 529.144531 44.636719 C 529.40625 44.835938 529.671875 45.03125 529.929688 45.222656 C 536.210938 55.132813 507.171875 75.085938 500.394531 77.347656 C 489.695313 80.917969 485.074219 78.914063 482.472656 77.976563 C 478.269531 76.46875 478.355469 71.996094 477.550781 71.996094 C 474.394531 75.148438 464.839844 80.804688 461.769531 75.03125 C 460.507813 72.667969 460.265625 67.507813 460.777344 64.644531 C 461.824219 58.761719 468 50.230469 468.316406 46.449219 C 461.289063 43.222656 451.320313 60.042969 449.640625 56.34375 C 448.898438 54.710938 450.269531 50.722656 451.230469 49.433594 C 452.082031 48.800781 465.765625 33.269531 474.613281 33.628906 C 487.035156 34.132813 471.429688 57.511719 471.429688 64.4375 C 471.371094 64.644531 471.609375 64.5625 471.609375 64.617188 C 478.027344 63.167969 481.34375 50.695313 484.648438 45.605469 C 495.707031 30.394531 506.59375 30.417969 508.152344 30.058594 Z M 490.511719 50.757813 C 490.574219 50.757813 490.511719 50.96875 490.691406 50.9375 C 493.117188 50.371094 508.332031 40.363281 508.332031 38.15625 C 502.039063 38.480469 492.363281 45.054688 490.511719 50.757813 "/>
</g>
<path style=" stroke:none;fill-rule:nonzero;fill:rgb(0%,42.352295%,52.548218%);fill-opacity:1;" d="M 441.730469 59.9375 C 445.597656 60.054688 449.785156 65.007813 449.660156 68.746094 C 449.554688 71.855469 446.113281 76.734375 442.789063 77.019531 C 437.839844 77.4375 435.492188 69.878906 436.835938 66.039063 C 437.742188 63.441406 439.507813 61.597656 441.730469 59.9375 "/>
<g clip-path="url(#clip2)" clip-rule="nonzero">
<path style=" stroke:none;fill-rule:nonzero;fill:rgb(0%,42.352295%,52.548218%);fill-opacity:1;" d="M 271.089844 -0.00390625 C 284.882813 2.21875 263.710938 26.496094 263.710938 31.316406 C 265.273438 31.902344 271.125 32.566406 272.816406 32.199219 C 275.394531 30.796875 280.871094 30.121094 281.351563 30.058594 C 285.421875 29.824219 292.152344 31.480469 292.152344 33.65625 C 292.214844 33.59375 292.273438 33.539063 292.332031 33.476563 C 295.007813 31.890625 298.441406 30.597656 301.871094 30.597656 C 309.992188 31.117188 314.289063 35.355469 314.289063 37.617188 C 314.410156 37.679688 314.53125 37.742188 314.652344 37.796875 C 318.121094 35.242188 329.585938 29.535156 334.203125 31.796875 C 340.707031 34.972656 334.96875 43.792969 332.621094 47.488281 C 331.082031 49.902344 328.617188 52.445313 328 55.273438 C 328.050781 55.332031 328.152344 55.320313 328.152344 55.257813 C 334.011719 49.390625 351.824219 26.648438 360.320313 29.808594 C 367.152344 32.351563 363.144531 41.945313 363.070313 42.476563 C 363.070313 42.414063 363.070313 42.359375 363.070313 42.296875 C 367.761719 39.027344 380.9375 22.503906 387.242188 29.4375 C 396.792969 39.945313 371.914063 60.664063 373.957031 71.792969 C 374.523438 74.910156 376.050781 79.675781 371.335938 80.144531 C 370.925781 80.136719 370.519531 80.136719 370.109375 80.132813 C 368.308594 79.921875 366.710938 78.589844 365.445313 77.371094 C 357.316406 69.519531 367.984375 57.851563 374.484375 44.851563 C 375.445313 43.230469 376.15625 41.402344 377.109375 39.777344 C 376.992188 39.839844 376.875 39.902344 376.75 39.957031 C 369.769531 43.597656 359.144531 55.605469 354.804688 62.277344 C 352.171875 66.316406 349.890625 71.800781 346.242188 75.125 C 344.566406 76.644531 341.644531 78.714844 339.238281 77.574219 C 333.742188 74.96875 344.476563 58.292969 346.214844 54.832031 C 347.675781 51.664063 349.632813 48.566406 351.089844 45.394531 C 351.574219 44.617188 351.785156 43.800781 352.269531 43.019531 C 352.269531 42.898438 352.269531 42.78125 352.269531 42.65625 C 349.722656 43.417969 347.601563 45.09375 345.527344 46.707031 C 337.964844 52.582031 330.464844 60.382813 324.851563 68.105469 C 322.003906 72.015625 319.003906 76.886719 315.085938 80.136719 C 313.308594 81.605469 310.933594 82.765625 308.617188 81.554688 C 307.140625 80.78125 306.074219 78.71875 306.429688 77.035156 C 309.316406 63.183594 332.152344 36.894531 325.632813 38.699219 C 322.199219 40.257813 318.773438 41.8125 315.34375 43.367188 C 313.558594 44.824219 313.871094 50.519531 303.851563 63.128906 C 297.269531 71.40625 286.871094 78.21875 277.984375 82.847656 C 276.105469 83.824219 272.1875 86.15625 269.910156 85.84375 C 268.070313 85.59375 257.613281 80.410156 257.613281 56.335938 C 257.613281 46.636719 264.078125 41.175781 264.078125 40.816406 C 262.101563 40.816406 258.644531 41.019531 257.210938 42.121094 C 255.238281 43.621094 239.472656 71.097656 237.960938 76.007813 C 237.101563 78.78125 238.839844 81.808594 237.808594 84.328125 C 237.253906 85.671875 236.148438 86.71875 234.71875 87.074219 C 233.042969 87.476563 231.25 87.183594 229.878906 86.390625 C 222.597656 82.171875 228.550781 71.269531 227.375 64.503906 C 226.316406 58.433594 214.425781 52.433594 212.367188 53.082031 C 210.476563 53.664063 202.628906 66.851563 201.652344 69.101563 C 199.140625 74.894531 195.582031 80.417969 194.230469 86.757813 C 193.144531 91.84375 188.171875 90.890625 185.933594 87.023438 C 184.832031 85.121094 184.984375 79.476563 184.433594 78.898438 C 183.167969 77.574219 170.691406 78.835938 168.382813 80.714844 C 164.734375 83.675781 161.675781 91.332031 159.371094 95.3125 C 154.574219 103.585938 149.578125 111.824219 143.984375 119.667969 C 142.355469 121.570313 138.179688 127.222656 137.710938 128.152344 C 135.691406 131.019531 128.324219 138.835938 124.882813 139.699219 C 121.398438 140.566406 117.074219 137.605469 114.976563 135.074219 C 108.078125 126.753906 131.332031 99.019531 137.699219 93.238281 C 140.8125 90.40625 144.246094 88.078125 147.59375 85.664063 C 149.214844 84.488281 155.109375 80.695313 156.382813 79.34375 C 160.203125 75.253906 161.910156 70.128906 164.195313 65.167969 C 165.828125 61.601563 170.902344 51.066406 171.730469 49.316406 C 168.328125 50.25 165.933594 51.867188 162.851563 53.335938 C 160.460938 54.464844 129.503906 74.753906 126.175781 63.308594 C 125.117188 59.683594 127.164063 55.703125 128.144531 52.550781 C 128.273438 52.316406 128.402344 52.078125 128.53125 51.835938 C 128.53125 51.777344 128.53125 51.71875 128.53125 51.65625 C 128.414063 51.65625 128.296875 51.65625 128.171875 51.65625 C 127.089844 52.800781 125.863281 54.335938 124.316406 54.59375 C 122.210938 54.941406 120.121094 51.640625 120.902344 49.828125 C 122.035156 47.175781 139.539063 33.835938 142.421875 32.65625 C 143.667969 32.140625 145.292969 32.269531 146.40625 32.933594 C 152.742188 36.695313 136.992188 52.890625 136.992188 57.417969 C 137.054688 57.417969 137.113281 57.417969 137.171875 57.417969 C 137.171875 57.355469 137.171875 57.300781 137.171875 57.238281 C 140.265625 56.277344 142.769531 54.386719 145.585938 52.871094 C 153.085938 48.828125 160.160156 44.210938 167.398438 39.773438 C 170.855469 37.652344 174.375 34.765625 178.246094 33.59375 C 180.195313 33 182.316406 33.359375 183.875 34.484375 C 185.519531 35.671875 186.035156 37.425781 185.867188 39.585938 C 185.613281 42.757813 184.207031 45.324219 183.140625 48.082031 C 179.960938 56.242188 171.191406 73.859375 171.191406 73.976563 C 171.253906 73.976563 171.371094 74.101563 171.371094 74.15625 C 173.710938 73.679688 181.230469 73.359375 181.949219 73.296875 C 184.609375 73.320313 185.941406 73.054688 187.277344 72.195313 C 189.585938 70.699219 190.902344 66.421875 192.160156 64.152344 C 194.152344 60.351563 199.464844 52.390625 199.632813 52.199219 C 199.632813 52.019531 199.632813 51.835938 199.632813 51.65625 C 196.964844 51.734375 192.511719 52.410156 193.734375 48.429688 C 195.25 43.488281 203.058594 43.550781 206.414063 40.808594 C 208.230469 39.316406 224.109375 14.699219 224.109375 13.316406 C 224.171875 13.257813 224.234375 13.199219 224.289063 13.136719 C 224.230469 13.136719 224.171875 13.136719 224.109375 13.136719 C 224.109375 13.074219 224.109375 13.019531 224.109375 12.957031 C 216.144531 13.699219 207.921875 17.605469 202.074219 22.597656 C 199.132813 25.101563 197.554688 28.964844 193.808594 30.40625 C 191.925781 31.121094 189.882813 29.488281 189.074219 28.054688 C 187.902344 25.996094 188.441406 23.273438 189.910156 21.609375 C 192.851563 18.25 197.910156 16.710938 201.730469 14.851563 C 208.242188 11.675781 218.054688 5.035156 225.730469 5.035156 C 226.152344 4.976563 230.992188 6 232.414063 7.148438 C 238.382813 11.957031 231.191406 23.769531 228.089844 28.078125 C 226.632813 30.089844 222.3125 35.253906 222.3125 37.617188 C 222.492188 37.617188 249.132813 33.359375 249.492188 33.296875 C 254.492188 30.597656 262.074219 15.34375 264.199219 9.882813 C 265.152344 7.429688 265.546875 3.953125 267.265625 1.925781 C 268.300781 0.707031 269.601563 0.183594 271.089844 -0.00390625 Z M 214.929688 48.058594 C 214.929688 48.175781 234.191406 52.246094 234.191406 59.757813 C 234.285156 59.933594 234.347656 60.121094 234.550781 59.757813 C 236.164063 55.230469 243.183594 45.65625 244.449219 43.378906 C 239.136719 43.234375 220.984375 43.269531 214.929688 48.058594 Z M 150.132813 90.355469 C 150.132813 90.417969 150.132813 90.480469 150.132813 90.535156 C 143.402344 93.894531 132.453125 106.578125 126.992188 115.179688 C 122.789063 121.972656 120.789063 128.945313 120.789063 130.5 C 120.910156 130.4375 121.03125 130.378906 121.152344 130.320313 C 123.765625 129.152344 124.953125 127.246094 126.828125 125.199219 C 132.953125 118.476563 137.363281 111.0625 141.914063 103.554688 C 144.371094 99.484375 147.359375 95.816406 149.699219 91.757813 C 149.964844 91.410156 150.226563 91.066406 150.492188 90.71875 C 150.371094 90.597656 150.253906 90.480469 150.132813 90.355469 "/>
</g>
<path style=" stroke:none;fill-rule:nonzero;fill:rgb(53.72467%,83.135986%,89.4104%);fill-opacity:1;" d="M 289.773438 42.203125 C 289.773438 42.203125 284.1875 37.027344 275.167969 41.640625 C 258.6875 50.070313 271.046875 76.847656 271.046875 76.847656 C 271.046875 76.847656 302.371094 59.769531 303.632813 46.511719 C 304.757813 34.710938 289.773438 42.203125 289.773438 42.203125 "/>
</g>
</svg>
